<mxfile host="app.diagrams.net" modified="2023-06-12T16:29:59.401Z" agent="Mozilla/5.0 (Windows NT 10.0; Win64; x64) AppleWebKit/537.36 (KHTML, like Gecko) Chrome/114.0.0.0 Safari/537.36" version="21.3.8" etag="ez_P0EPA-G6v8JpD0Zcr" type="github">
  <diagram name="Page-1" id="jtr7soEtXuzOFi3PTn-S">
    <mxGraphModel>
      <root>
        <mxCell id="0" />
        <mxCell id="1" parent="0" />
      </root>
    </mxGraphModel>
  </diagram>
</mxfile>
